M48
; DRILL file KiCad 10.0.6 date 2026-08-30T18:16:52
; FORMAT={-:-/ absolute / metric / decimal}
; #@! TF.CreationDate,2026-08-30T18:16:52-07:00
; #@! TF.GenerationSoftware,Kicad,Pcbnew,10.0.6
; #@! TF.FileFunction,NonPlated,1,2,NPTH
FMAT,2
METRIC
; #@! TA.AperFunction,NonPlated,NPTH,ComponentDrill
T1C1.750
; #@! TA.AperFunction,NonPlated,NPTH,ComponentDrill
T2C3.048
; #@! TA.AperFunction,NonPlated,NPTH,ComponentDrill
T3C3.988
%
G90
G05
T1
X17.144Y-22.224
X19.525Y-98.419
X21.906Y-41.272
X24.287Y-60.321
X27.304Y-22.224
X29.049Y-79.37
X29.685Y-98.419
X32.066Y-41.272
X34.447Y-60.321
X36.192Y-22.224
X39.209Y-79.37
X43.336Y-98.419
X45.717Y-41.272
X46.352Y-22.224
X50.479Y-60.321
X53.496Y-98.419
X55.241Y-22.224
X55.877Y-41.272
X60.003Y-79.37
X60.639Y-60.321
X64.766Y-41.272
X65.401Y-22.224
X67.147Y-98.419
X69.528Y-60.321
X70.163Y-79.37
X74.29Y-22.224
X74.926Y-41.272
X77.307Y-98.419
X79.052Y-79.37
X79.688Y-60.321
X83.814Y-41.272
X84.45Y-22.224
X88.577Y-60.321
X89.212Y-79.37
X93.339Y-22.224
X93.974Y-41.272
X98.101Y-79.37
X98.737Y-60.321
X102.863Y-41.272
X103.499Y-22.224
X107.625Y-60.321
X108.261Y-79.37
X112.388Y-22.224
X113.023Y-41.272
X117.15Y-79.37
X117.785Y-60.321
X121.912Y-41.272
X122.548Y-22.224
X126.674Y-60.321
X127.31Y-79.37
X131.436Y-22.224
X132.072Y-41.272
X136.199Y-79.37
X136.834Y-60.321
X139.373Y-98.419
X140.961Y-41.272
X141.596Y-22.224
X145.723Y-60.321
X146.359Y-79.37
X149.533Y-98.419
X150.485Y-22.224
X151.121Y-41.272
X155.247Y-79.37
X155.883Y-60.321
X160.01Y-41.272
X160.645Y-22.224
X164.772Y-60.321
X165.407Y-79.37
X169.534Y-22.224
X170.17Y-41.272
X174.296Y-79.37
X174.932Y-60.321
X179.058Y-41.272
X179.694Y-22.224
X183.821Y-60.321
X184.456Y-79.37
X188.583Y-22.224
X189.218Y-41.272
X193.345Y-79.37
X193.981Y-60.321
X198.107Y-41.272
X198.743Y-22.224
X202.869Y-60.321
X203.505Y-79.37
X207.632Y-22.224
X208.267Y-41.272
X210.806Y-98.419
X212.394Y-79.37
X213.029Y-60.321
X217.156Y-41.303
X217.792Y-22.224
X220.966Y-98.419
X221.918Y-60.321
X222.554Y-79.37
X226.68Y-22.284
X227.316Y-41.303
X231.443Y-79.37
X232.078Y-60.321
X234.617Y-98.419
X236.205Y-41.272
X236.84Y-22.284
X240.967Y-60.321
X241.603Y-79.37
X244.777Y-98.419
X245.729Y-22.224
X246.365Y-41.272
X251.127Y-60.321
X255.254Y-41.272
X255.889Y-22.224
X258.428Y-98.419
X265.414Y-41.272
X267.159Y-79.37
X268.588Y-98.419
X271.921Y-60.321
X274.302Y-22.224
X277.319Y-79.37
X279.065Y-41.272
X282.081Y-60.321
X284.462Y-22.224
X289.225Y-41.272
T2
X22.223Y-72.385
X46.035Y-72.385
X94.447Y-91.434
X194.46Y-91.434
X260.333Y-72.385
X265.095Y-53.336
X267.476Y-15.239
X284.145Y-72.385
X288.908Y-53.336
X291.289Y-15.239
T3
X22.223Y-87.625
X22.224Y-22.224
X24.605Y-98.419
X26.986Y-41.272
X29.367Y-60.321
X34.129Y-79.37
X41.272Y-22.224
X46.035Y-87.625
X48.416Y-98.419
X50.797Y-41.272
X55.559Y-60.321
X60.321Y-22.224
X65.083Y-79.37
X69.846Y-41.272
X72.227Y-98.419
X74.608Y-60.321
X79.37Y-22.224
X84.132Y-79.37
X88.894Y-41.272
X93.657Y-60.321
X94.447Y-106.674
X98.419Y-22.224
X103.181Y-79.37
X107.943Y-41.272
X112.705Y-60.321
X117.468Y-22.224
X122.23Y-79.37
X126.992Y-41.272
X131.754Y-60.321
X136.516Y-22.224
X141.279Y-79.37
X144.453Y-98.419
X146.041Y-41.272
X150.803Y-60.321
X155.565Y-22.224
X160.327Y-79.37
X165.09Y-41.272
X169.852Y-60.321
X174.614Y-22.224
X179.376Y-79.37
X184.138Y-41.272
X188.901Y-60.321
X193.663Y-22.224
X194.46Y-106.674
X198.425Y-79.37
X203.187Y-41.272
X207.949Y-60.321
X212.712Y-22.224
X215.886Y-98.419
X217.474Y-79.37
X222.236Y-41.303
X226.998Y-60.321
X231.76Y-22.284
X236.523Y-79.37
X239.697Y-98.419
X241.285Y-41.272
X246.047Y-60.321
X250.809Y-22.224
X260.333Y-87.625
X260.334Y-41.272
X263.508Y-98.419
X265.095Y-68.576
X267.476Y-30.479
X272.239Y-79.37
X277.001Y-60.321
X279.382Y-22.224
X284.145Y-41.272
X284.145Y-87.625
X288.908Y-68.576
X291.289Y-30.479
M30
