M48
; DRILL file KiCad 10.0.6 date 2026-08-30T18:16:52
; FORMAT={-:-/ absolute / metric / decimal}
; #@! TF.CreationDate,2026-08-30T18:16:52-07:00
; #@! TF.GenerationSoftware,Kicad,Pcbnew,10.0.6
; #@! TF.FileFunction,Plated,1,2,PTH
FMAT,2
METRIC
; #@! TA.AperFunction,Plated,PTH,ViaDrill
T1C0.300
; #@! TA.AperFunction,Plated,PTH,ComponentDrill
T2C0.800
; #@! TA.AperFunction,Plated,PTH,ComponentDrill
T3C1.000
; #@! TA.AperFunction,Plated,PTH,ComponentDrill
T4C1.500
; #@! TA.AperFunction,Plated,PTH,ComponentDrill
T5C1.524
%
G90
G05
T1
X111.912Y-51.59
X126.198Y-52.384
X207.156Y-50.003
X244.46Y-50.797
T2
X7.143Y-33.494
X7.143Y-41.114
X31.748Y-20.795
X31.748Y-28.415
X34.129Y-96.196
X34.129Y-103.816
X36.51Y-39.843
X36.51Y-47.463
X38.891Y-58.892
X38.891Y-66.512
X50.797Y-20.795
X50.797Y-28.415
X52.384Y-78.735
X52.384Y-86.355
X57.94Y-96.196
X57.94Y-103.816
X60.321Y-39.843
X60.321Y-47.463
X65.083Y-58.892
X65.083Y-66.512
X69.846Y-20.795
X69.846Y-28.415
X74.608Y-78.735
X74.608Y-86.355
X79.37Y-39.843
X79.37Y-47.463
X81.751Y-96.196
X81.751Y-103.816
X84.132Y-58.892
X84.132Y-66.512
X88.894Y-20.795
X88.894Y-28.415
X93.657Y-78.735
X93.657Y-86.355
X98.419Y-39.843
X98.419Y-47.463
X103.181Y-58.892
X103.181Y-66.512
X107.943Y-20.795
X107.943Y-28.415
X112.705Y-78.735
X112.705Y-86.355
X117.468Y-39.843
X117.468Y-47.463
X122.23Y-58.892
X122.23Y-66.512
X126.992Y-20.795
X126.992Y-28.415
X131.754Y-78.735
X131.754Y-86.355
X136.516Y-39.843
X136.516Y-47.463
X141.279Y-58.892
X141.279Y-66.512
X146.041Y-20.795
X146.041Y-28.415
X150.803Y-78.735
X150.803Y-86.355
X153.978Y-96.196
X153.978Y-103.816
X155.565Y-39.685
X155.565Y-47.305
X160.327Y-58.892
X160.327Y-66.512
X165.09Y-20.795
X165.09Y-28.415
X169.852Y-78.735
X169.852Y-86.355
X174.614Y-39.843
X174.614Y-47.463
X179.376Y-58.892
X179.376Y-66.512
X184.138Y-20.795
X184.138Y-28.415
X188.901Y-78.735
X188.901Y-86.355
X193.663Y-39.843
X193.663Y-47.463
X198.425Y-58.892
X198.425Y-66.512
X203.187Y-20.795
X203.187Y-28.415
X207.949Y-78.735
X207.949Y-86.355
X212.712Y-39.685
X212.712Y-47.305
X217.474Y-58.892
X217.474Y-66.512
X222.236Y-20.795
X222.236Y-28.415
X225.411Y-96.196
X225.411Y-103.816
X226.998Y-78.735
X226.998Y-86.355
X231.76Y-39.843
X231.76Y-47.463
X236.523Y-58.892
X236.523Y-66.512
X241.285Y-20.795
X241.285Y-28.415
X246.047Y-78.735
X246.047Y-86.355
X249.222Y-96.196
X249.222Y-103.816
X250.809Y-39.843
X250.809Y-47.463
X255.571Y-58.892
X255.571Y-66.512
X260.334Y-20.795
X260.334Y-28.415
X269.858Y-39.843
X269.858Y-47.463
X273.033Y-96.196
X273.033Y-103.816
X289.7Y-78.735
X289.7Y-86.355
X293.669Y-39.843
X293.669Y-47.463
X293.669Y-59.686
X293.669Y-67.306
X296.05Y-21.43
X296.05Y-29.05
T3
X-1.031Y-15.661
X-1.031Y-30.161
X1.468Y-30.161
X3.968Y-15.661
X3.968Y-30.161
X309.384Y-9.993
X309.384Y-12.534
X309.384Y-15.073
X309.384Y-17.613
X309.384Y-20.153
X309.384Y-22.694
X309.384Y-25.233
X309.384Y-27.773
X309.384Y-30.313
X309.384Y-32.853
X309.384Y-35.393
X309.384Y-37.933
X309.384Y-40.474
X309.384Y-43.014
X309.384Y-45.553
X309.384Y-48.093
X309.384Y-50.633
X309.384Y-53.173
X309.384Y-55.713
X309.384Y-58.253
X327.164Y-9.993
X327.164Y-12.534
X327.164Y-15.073
X327.164Y-17.613
X327.164Y-20.153
X327.164Y-22.694
X327.164Y-25.233
X327.164Y-27.773
X327.164Y-30.313
X327.164Y-32.853
X327.164Y-35.393
X327.164Y-37.933
X327.164Y-40.474
X327.164Y-43.014
X327.164Y-45.553
X327.164Y-48.093
X327.164Y-50.633
X327.164Y-53.173
X327.164Y-55.713
X327.164Y-58.253
T5
X18.414Y-19.684
X20.795Y-95.879
X23.176Y-38.732
X24.764Y-17.144
X25.557Y-57.781
X27.145Y-93.339
X29.526Y-36.192
X30.319Y-76.83
X31.907Y-55.241
X36.669Y-74.29
X37.462Y-19.684
X43.812Y-17.144
X44.606Y-95.879
X46.987Y-38.732
X50.956Y-93.339
X51.749Y-57.781
X53.337Y-36.192
X56.511Y-19.684
X58.099Y-55.241
X61.273Y-76.83
X62.861Y-17.144
X66.036Y-38.732
X67.623Y-74.29
X68.417Y-95.879
X70.798Y-57.781
X72.386Y-36.192
X74.767Y-93.339
X75.56Y-19.684
X77.148Y-55.241
X80.322Y-76.83
X81.91Y-17.144
X85.084Y-38.732
X86.672Y-74.29
X89.847Y-57.781
X91.434Y-36.192
X94.609Y-19.684
X96.197Y-55.241
X99.371Y-76.83
X100.959Y-17.144
X104.133Y-38.732
X105.721Y-74.29
X108.895Y-57.781
X110.483Y-36.192
X113.658Y-19.684
X115.245Y-55.241
X118.42Y-76.83
X120.008Y-17.144
X123.182Y-38.732
X124.77Y-74.29
X127.944Y-57.781
X129.532Y-36.192
X132.706Y-19.684
X134.294Y-55.241
X137.469Y-76.83
X139.056Y-17.144
X140.643Y-95.879
X142.231Y-38.732
X143.819Y-74.29
X146.993Y-57.781
X146.993Y-93.339
X148.581Y-36.192
X151.755Y-19.684
X153.343Y-55.241
X156.517Y-76.83
X158.105Y-17.144
X161.28Y-38.732
X162.867Y-74.29
X166.042Y-57.781
X167.63Y-36.192
X170.804Y-19.684
X172.392Y-55.241
X175.566Y-76.83
X177.154Y-17.144
X180.328Y-38.732
X181.916Y-74.29
X185.091Y-57.781
X186.678Y-36.192
X189.853Y-19.684
X191.441Y-55.241
X194.615Y-76.83
X196.203Y-17.144
X199.377Y-38.732
X200.965Y-74.29
X204.139Y-57.781
X205.727Y-36.192
X208.902Y-19.684
X210.489Y-55.241
X212.076Y-95.879
X213.664Y-76.83
X215.252Y-17.144
X218.426Y-38.763
X218.426Y-93.339
X220.014Y-74.29
X223.188Y-57.781
X224.776Y-36.223
X227.95Y-19.744
X229.538Y-55.241
X232.713Y-76.83
X234.3Y-17.204
X235.887Y-95.879
X237.475Y-38.732
X239.063Y-74.29
X242.237Y-57.781
X242.237Y-93.339
X243.825Y-36.192
X246.999Y-19.684
X248.587Y-55.241
X253.349Y-17.144
X256.524Y-38.732
X259.698Y-95.879
X262.874Y-36.192
X266.048Y-93.339
X268.429Y-76.83
X273.191Y-57.781
X274.779Y-74.29
X275.572Y-19.684
X279.541Y-55.241
X280.335Y-38.732
X281.922Y-17.144
X286.685Y-36.192
T4
G00X-4.131Y-23.311
M15
G01X-4.131Y-22.011
M16
G05
G00X7.068Y-23.311
M15
G01X7.068Y-22.011
M16
G05
M30
