%TF.GenerationSoftware,KiCad,Pcbnew,10.0.6*%
%TF.CreationDate,2026-08-30T18:16:04-07:00*%
%TF.ProjectId,keeb,6b656562-2e6b-4696-9361-645f70636258,rev?*%
%TF.SameCoordinates,Original*%
%TF.FileFunction,Soldermask,Top*%
%TF.FilePolarity,Negative*%
%FSLAX46Y46*%
G04 Gerber Fmt 4.6, Leading zero omitted, Abs format (unit mm)*
G04 Created by KiCad (PCBNEW 10.0.6) date 2026-08-30 18:16:04*
%MOMM*%
%LPD*%
G01*
G04 APERTURE LIST*
G04 Aperture macros list*
%AMRoundRect*
0 Rectangle with rounded corners*
0 $1 Rounding radius*
0 $2 $3 $4 $5 $6 $7 $8 $9 X,Y pos of 4 corners*
0 Add a 4 corners polygon primitive as box body*
4,1,4,$2,$3,$4,$5,$6,$7,$8,$9,$2,$3,0*
0 Add four circle primitives for the rounded corners*
1,1,$1+$1,$2,$3*
1,1,$1+$1,$4,$5*
1,1,$1+$1,$6,$7*
1,1,$1+$1,$8,$9*
0 Add four rect primitives between the rounded corners*
20,1,$1+$1,$2,$3,$4,$5,0*
20,1,$1+$1,$4,$5,$6,$7,0*
20,1,$1+$1,$6,$7,$8,$9,0*
20,1,$1+$1,$8,$9,$2,$3,0*%
%AMFreePoly0*
4,1,37,0.000000,0.796148,0.078414,0.796148,0.232228,0.765552,0.377117,0.705537,0.507515,0.618408,0.618408,0.507515,0.705537,0.377117,0.765552,0.232228,0.796148,0.078414,0.796148,-0.078414,0.765552,-0.232228,0.705537,-0.377117,0.618408,-0.507515,0.507515,-0.618408,0.377117,-0.705537,0.232228,-0.765552,0.078414,-0.796148,0.000000,-0.796148,0.000000,-0.800000,-0.600000,-0.800000,
-0.603843,-0.796157,-0.639018,-0.796157,-0.711114,-0.766294,-0.766294,-0.711114,-0.796157,-0.639018,-0.796157,-0.603843,-0.800000,-0.600000,-0.800000,0.600000,-0.796157,0.603843,-0.796157,0.639018,-0.766294,0.711114,-0.711114,0.766294,-0.639018,0.796157,-0.603843,0.796157,-0.600000,0.800000,0.000000,0.800000,0.000000,0.796148,0.000000,0.796148,$1*%
%AMFreePoly1*
4,1,37,0.603843,0.796157,0.639018,0.796157,0.711114,0.766294,0.766294,0.711114,0.796157,0.639018,0.796157,0.603843,0.800000,0.600000,0.800000,-0.600000,0.796157,-0.603843,0.796157,-0.639018,0.766294,-0.711114,0.711114,-0.766294,0.639018,-0.796157,0.603843,-0.796157,0.600000,-0.800000,0.000000,-0.800000,0.000000,-0.796148,-0.078414,-0.796148,-0.232228,-0.765552,-0.377117,-0.705537,
-0.507515,-0.618408,-0.618408,-0.507515,-0.705537,-0.377117,-0.765552,-0.232228,-0.796148,-0.078414,-0.796148,0.078414,-0.765552,0.232228,-0.705537,0.377117,-0.618408,0.507515,-0.507515,0.618408,-0.377117,0.705537,-0.232228,0.765552,-0.078414,0.796148,0.000000,0.796148,0.000000,0.800000,0.600000,0.800000,0.603843,0.796157,0.603843,0.796157,$1*%
G04 Aperture macros list end*
%ADD10C,1.600000*%
%ADD11FreePoly0,0.000000*%
%ADD12FreePoly1,0.000000*%
%ADD13RoundRect,0.200000X-0.600000X-0.600000X0.600000X-0.600000X0.600000X0.600000X-0.600000X0.600000X0*%
%ADD14C,1.750000*%
%ADD15C,3.987800*%
%ADD16RoundRect,0.250000X0.550000X-0.550000X0.550000X0.550000X-0.550000X0.550000X-0.550000X-0.550000X0*%
%ADD17C,3.048000*%
G04 APERTURE END LIST*
D10*
%TO.C,A1*%
X327163700Y-9993500D03*
X327163700Y-12533500D03*
D11*
X327163700Y-15073500D03*
D10*
X327163700Y-17613500D03*
X327163700Y-20153500D03*
X327163700Y-22693500D03*
X327163700Y-25233500D03*
D11*
X327163700Y-27773500D03*
D10*
X327163700Y-30313500D03*
X327163700Y-32853500D03*
X327163700Y-35393500D03*
X327163700Y-37933500D03*
D11*
X327163700Y-40473500D03*
D10*
X327163700Y-43013500D03*
X327163700Y-45553500D03*
X327163700Y-48093500D03*
X327163700Y-50633500D03*
D11*
X327163700Y-53173500D03*
D10*
X327163700Y-55713500D03*
X327163700Y-58253500D03*
X309383700Y-58253500D03*
X309383700Y-55713500D03*
D12*
X309383700Y-53173500D03*
D10*
X309383700Y-50633500D03*
X309383700Y-48093500D03*
X309383700Y-45553500D03*
X309383700Y-43013500D03*
D12*
X309383700Y-40473500D03*
D10*
X309383700Y-37933500D03*
X309383700Y-35393500D03*
X309383700Y-32853500D03*
X309383700Y-30313500D03*
D12*
X309383700Y-27773500D03*
D10*
X309383700Y-25233500D03*
X309383700Y-22693500D03*
X309383700Y-20153500D03*
X309383700Y-17613500D03*
D12*
X309383700Y-15073500D03*
D10*
X309383700Y-12533500D03*
D13*
X309383700Y-9993500D03*
%TD*%
D14*
%TO.C,SW11*%
X55241200Y-22223600D03*
D15*
X60321200Y-22223600D03*
D14*
X65401200Y-22223600D03*
%TD*%
D16*
%TO.C,D7*%
X60321200Y-47463500D03*
D10*
X60321200Y-39843500D03*
%TD*%
D16*
%TO.C,D60*%
X293669000Y-47463500D03*
D10*
X293669000Y-39843500D03*
%TD*%
D16*
%TO.C,D20*%
X153977800Y-103816200D03*
D10*
X153977800Y-96196200D03*
%TD*%
D16*
%TO.C,D59*%
X296050100Y-29049900D03*
D10*
X296050100Y-21429900D03*
%TD*%
D14*
%TO.C,SW18*%
X88576600Y-60321200D03*
D15*
X93656600Y-60321200D03*
D14*
X98736600Y-60321200D03*
%TD*%
D17*
%TO.C,S4*%
X22222850Y-72385000D03*
D15*
X22222850Y-87625000D03*
D17*
X46035350Y-72385000D03*
D15*
X46035350Y-87625000D03*
%TD*%
D16*
%TO.C,D1*%
X31748000Y-28414700D03*
D10*
X31748000Y-20794700D03*
%TD*%
D16*
%TO.C,D39*%
X188900600Y-86354800D03*
D10*
X188900600Y-78734800D03*
%TD*%
D16*
%TO.C,D25*%
X225410800Y-103816200D03*
D10*
X225410800Y-96196200D03*
%TD*%
D14*
%TO.C,SW40*%
X169534000Y-22223600D03*
D15*
X174614000Y-22223600D03*
D14*
X179694000Y-22223600D03*
%TD*%
D16*
%TO.C,D21*%
X107943200Y-28414700D03*
D10*
X107943200Y-20794700D03*
%TD*%
D14*
%TO.C,SW45*%
X198107200Y-41272400D03*
D15*
X203187200Y-41272400D03*
D14*
X208267200Y-41272400D03*
%TD*%
%TO.C,SW23*%
X107625400Y-60321200D03*
D15*
X112705400Y-60321200D03*
D14*
X117785400Y-60321200D03*
%TD*%
%TO.C,SW41*%
X179058400Y-41272400D03*
D15*
X184138400Y-41272400D03*
D14*
X189218400Y-41272400D03*
%TD*%
%TO.C,SW8*%
X50479000Y-60321200D03*
D15*
X55559000Y-60321200D03*
D14*
X60639000Y-60321200D03*
%TD*%
D16*
%TO.C,D36*%
X165089600Y-28414700D03*
D10*
X165089600Y-20794700D03*
%TD*%
D16*
%TO.C,D44*%
X203187200Y-28414700D03*
D10*
X203187200Y-20794700D03*
%TD*%
D16*
%TO.C,D37*%
X174614000Y-47463500D03*
D10*
X174614000Y-39843500D03*
%TD*%
D16*
%TO.C,D45*%
X212711600Y-47305000D03*
D10*
X212711600Y-39685000D03*
%TD*%
D14*
%TO.C,SW17*%
X83814400Y-41272400D03*
D15*
X88894400Y-41272400D03*
D14*
X93974400Y-41272400D03*
%TD*%
D16*
%TO.C,D42*%
X198425000Y-66512300D03*
D10*
X198425000Y-58892300D03*
%TD*%
D14*
%TO.C,SW5*%
X19524700Y-98418800D03*
D15*
X24604700Y-98418800D03*
D14*
X29684700Y-98418800D03*
%TD*%
D16*
%TO.C,D32*%
X155565200Y-47305000D03*
D10*
X155565200Y-39685000D03*
%TD*%
D14*
%TO.C,SW56*%
X245729200Y-22223600D03*
D15*
X250809200Y-22223600D03*
D14*
X255889200Y-22223600D03*
%TD*%
%TO.C,SW47*%
X212393800Y-79370000D03*
D15*
X217473800Y-79370000D03*
D14*
X222553800Y-79370000D03*
%TD*%
%TO.C,SW26*%
X112387600Y-22223600D03*
D15*
X117467600Y-22223600D03*
D14*
X122547600Y-22223600D03*
%TD*%
%TO.C,SW14*%
X79052200Y-79370000D03*
D15*
X84132200Y-79370000D03*
D14*
X89212200Y-79370000D03*
%TD*%
%TO.C,SW36*%
X150485200Y-22223600D03*
D15*
X155565200Y-22223600D03*
D14*
X160645200Y-22223600D03*
%TD*%
D16*
%TO.C,D41*%
X193662800Y-47463500D03*
D10*
X193662800Y-39843500D03*
%TD*%
D14*
%TO.C,SW50*%
X221918200Y-60321200D03*
D15*
X226998200Y-60321200D03*
D14*
X232078200Y-60321200D03*
%TD*%
D16*
%TO.C,D56*%
X260333600Y-28414700D03*
D10*
X260333600Y-20794700D03*
%TD*%
D16*
%TO.C,D23*%
X122229800Y-66512300D03*
D10*
X122229800Y-58892300D03*
%TD*%
D16*
%TO.C,D27*%
X136516400Y-47463500D03*
D10*
X136516400Y-39843500D03*
%TD*%
D14*
%TO.C,SW16*%
X74290000Y-22223600D03*
D15*
X79370000Y-22223600D03*
D14*
X84450000Y-22223600D03*
%TD*%
D16*
%TO.C,D54*%
X255571400Y-66512300D03*
D10*
X255571400Y-58892300D03*
%TD*%
D16*
%TO.C,D13*%
X84132200Y-66512300D03*
D10*
X84132200Y-58892300D03*
%TD*%
D14*
%TO.C,SW44*%
X188582800Y-22223600D03*
D15*
X193662800Y-22223600D03*
D14*
X198742800Y-22223600D03*
%TD*%
D16*
%TO.C,D4*%
X52384200Y-86354800D03*
D10*
X52384200Y-78734800D03*
%TD*%
D14*
%TO.C,SW20*%
X139373400Y-98418800D03*
D15*
X144453400Y-98418800D03*
D14*
X149533400Y-98418800D03*
%TD*%
D16*
%TO.C,D57*%
X269858000Y-47463500D03*
D10*
X269858000Y-39843500D03*
%TD*%
D14*
%TO.C,SW6*%
X36192400Y-22223600D03*
D15*
X41272400Y-22223600D03*
D14*
X46352400Y-22223600D03*
%TD*%
%TO.C,SW35*%
X258428400Y-98418800D03*
D15*
X263508400Y-98418800D03*
D14*
X268588400Y-98418800D03*
%TD*%
D16*
%TO.C,D19*%
X112705400Y-86354800D03*
D10*
X112705400Y-78734800D03*
%TD*%
D14*
%TO.C,SW53*%
X236204800Y-41272400D03*
D15*
X241284800Y-41272400D03*
D14*
X246364800Y-41272400D03*
%TD*%
%TO.C,SW3*%
X24286900Y-60321200D03*
D15*
X29366900Y-60321200D03*
D14*
X34446900Y-60321200D03*
%TD*%
D16*
%TO.C,D6*%
X50796800Y-28414700D03*
D10*
X50796800Y-20794700D03*
%TD*%
D14*
%TO.C,SW13*%
X69527800Y-60321200D03*
D15*
X74607800Y-60321200D03*
D14*
X79687800Y-60321200D03*
%TD*%
%TO.C,SW9*%
X60003400Y-79370000D03*
D15*
X65083400Y-79370000D03*
D14*
X70163400Y-79370000D03*
%TD*%
D16*
%TO.C,D51*%
X246047000Y-86354800D03*
D10*
X246047000Y-78734800D03*
%TD*%
D16*
%TO.C,D22*%
X117467600Y-47463500D03*
D10*
X117467600Y-39843500D03*
%TD*%
D16*
%TO.C,D8*%
X65083400Y-66512300D03*
D10*
X65083400Y-58892300D03*
%TD*%
D16*
%TO.C,D2*%
X36510200Y-47463500D03*
D10*
X36510200Y-39843500D03*
%TD*%
D16*
%TO.C,D53*%
X250809200Y-47463500D03*
D10*
X250809200Y-39843500D03*
%TD*%
D14*
%TO.C,SW34*%
X155247400Y-79370000D03*
D15*
X160327400Y-79370000D03*
D14*
X165407400Y-79370000D03*
%TD*%
%TO.C,SW25*%
X210806400Y-98418800D03*
D15*
X215886400Y-98418800D03*
D14*
X220966400Y-98418800D03*
%TD*%
%TO.C,SW52*%
X226680400Y-22284200D03*
D15*
X231760400Y-22284200D03*
D14*
X236840400Y-22284200D03*
%TD*%
D16*
%TO.C,D12*%
X79370000Y-47463500D03*
D10*
X79370000Y-39843500D03*
%TD*%
D14*
%TO.C,SW39*%
X174296200Y-79370000D03*
D15*
X179376200Y-79370000D03*
D14*
X184456200Y-79370000D03*
%TD*%
%TO.C,SW15*%
X67146700Y-98418800D03*
D15*
X72226700Y-98418800D03*
D14*
X77306700Y-98418800D03*
%TD*%
%TO.C,SW38*%
X164771800Y-60321200D03*
D15*
X169851800Y-60321200D03*
D14*
X174931800Y-60321200D03*
%TD*%
D16*
%TO.C,D11*%
X69845600Y-28414700D03*
D10*
X69845600Y-20794700D03*
%TD*%
D16*
%TO.C,D31*%
X146040800Y-28414700D03*
D10*
X146040800Y-20794700D03*
%TD*%
D14*
%TO.C,SW54*%
X240967000Y-60321200D03*
D15*
X246047000Y-60321200D03*
D14*
X251127000Y-60321200D03*
%TD*%
%TO.C,SW30*%
X234617400Y-98418800D03*
D15*
X239697400Y-98418800D03*
D14*
X244777400Y-98418800D03*
%TD*%
%TO.C,SW48*%
X207631600Y-22223600D03*
D15*
X212711600Y-22223600D03*
D14*
X217791600Y-22223600D03*
%TD*%
D16*
%TO.C,D61*%
X7143300Y-41113900D03*
D10*
X7143300Y-33493900D03*
%TD*%
D16*
%TO.C,D52*%
X241284800Y-28414700D03*
D10*
X241284800Y-20794700D03*
%TD*%
D16*
%TO.C,D55*%
X289700500Y-86354800D03*
D10*
X289700500Y-78734800D03*
%TD*%
D16*
%TO.C,D29*%
X150803000Y-86354800D03*
D10*
X150803000Y-78734800D03*
%TD*%
D14*
%TO.C,SW60*%
X279064600Y-41272400D03*
D15*
X284144600Y-41272400D03*
D14*
X289224600Y-41272400D03*
%TD*%
D16*
%TO.C,D16*%
X88894400Y-28414700D03*
D10*
X88894400Y-20794700D03*
%TD*%
D14*
%TO.C,SW51*%
X231442600Y-79370000D03*
D15*
X236522600Y-79370000D03*
D14*
X241602600Y-79370000D03*
%TD*%
%TO.C,SW46*%
X202869400Y-60321200D03*
D15*
X207949400Y-60321200D03*
D14*
X213029400Y-60321200D03*
%TD*%
D16*
%TO.C,D17*%
X98418800Y-47463500D03*
D10*
X98418800Y-39843500D03*
%TD*%
D16*
%TO.C,D40*%
X184138400Y-28414700D03*
D10*
X184138400Y-20794700D03*
%TD*%
D16*
%TO.C,D58*%
X293669000Y-67306000D03*
D10*
X293669000Y-59686000D03*
%TD*%
D14*
%TO.C,SW22*%
X102863200Y-41272400D03*
D15*
X107943200Y-41272400D03*
D14*
X113023200Y-41272400D03*
%TD*%
D16*
%TO.C,D46*%
X217473800Y-66512300D03*
D10*
X217473800Y-58892300D03*
%TD*%
D16*
%TO.C,D28*%
X141278600Y-66512300D03*
D10*
X141278600Y-58892300D03*
%TD*%
D14*
%TO.C,SW42*%
X183820600Y-60321200D03*
D15*
X188900600Y-60321200D03*
D14*
X193980600Y-60321200D03*
%TD*%
%TO.C,SW31*%
X131436400Y-22223600D03*
D15*
X136516400Y-22223600D03*
D14*
X141596400Y-22223600D03*
%TD*%
%TO.C,SW19*%
X98101000Y-79370000D03*
D15*
X103181000Y-79370000D03*
D14*
X108261000Y-79370000D03*
%TD*%
%TO.C,SW10*%
X43335700Y-98418800D03*
D15*
X48415700Y-98418800D03*
D14*
X53495700Y-98418800D03*
%TD*%
D17*
%TO.C,S5*%
X260332850Y-72385000D03*
D15*
X260332850Y-87625000D03*
D17*
X284145350Y-72385000D03*
D15*
X284145350Y-87625000D03*
%TD*%
D16*
%TO.C,D15*%
X81751100Y-103816200D03*
D10*
X81751100Y-96196200D03*
%TD*%
D16*
%TO.C,D49*%
X231760400Y-47463500D03*
D10*
X231760400Y-39843500D03*
%TD*%
D14*
%TO.C,SW1*%
X17143600Y-22223600D03*
D15*
X22223600Y-22223600D03*
D14*
X27303600Y-22223600D03*
%TD*%
%TO.C,SW37*%
X160009600Y-41272400D03*
D15*
X165089600Y-41272400D03*
D14*
X170169600Y-41272400D03*
%TD*%
%TO.C,SW28*%
X126674200Y-60321200D03*
D15*
X131754200Y-60321200D03*
D14*
X136834200Y-60321200D03*
%TD*%
%TO.C,SW32*%
X140960800Y-41272400D03*
D15*
X146040800Y-41272400D03*
D14*
X151120800Y-41272400D03*
%TD*%
D16*
%TO.C,D10*%
X57940100Y-103816200D03*
D10*
X57940100Y-96196200D03*
%TD*%
D14*
%TO.C,SW12*%
X64765600Y-41272400D03*
D15*
X69845600Y-41272400D03*
D14*
X74925600Y-41272400D03*
%TD*%
D16*
%TO.C,D9*%
X74607800Y-86354800D03*
D10*
X74607800Y-78734800D03*
%TD*%
D16*
%TO.C,D47*%
X226998200Y-86354800D03*
D10*
X226998200Y-78734800D03*
%TD*%
D14*
%TO.C,SW49*%
X217156000Y-41302700D03*
D15*
X222236000Y-41302700D03*
D14*
X227316000Y-41302700D03*
%TD*%
D16*
%TO.C,D3*%
X38891300Y-66512300D03*
D10*
X38891300Y-58892300D03*
%TD*%
D14*
%TO.C,SW29*%
X136198600Y-79370000D03*
D15*
X141278600Y-79370000D03*
D14*
X146358600Y-79370000D03*
%TD*%
%TO.C,SW4*%
X29049100Y-79370000D03*
D15*
X34129100Y-79370000D03*
D14*
X39209100Y-79370000D03*
%TD*%
%TO.C,SW43*%
X193345000Y-79370000D03*
D15*
X198425000Y-79370000D03*
D14*
X203505000Y-79370000D03*
%TD*%
%TO.C,SW24*%
X117149800Y-79370000D03*
D15*
X122229800Y-79370000D03*
D14*
X127309800Y-79370000D03*
%TD*%
D16*
%TO.C,D18*%
X103181000Y-66512300D03*
D10*
X103181000Y-58892300D03*
%TD*%
D14*
%TO.C,SW27*%
X121912000Y-41272400D03*
D15*
X126992000Y-41272400D03*
D14*
X132072000Y-41272400D03*
%TD*%
D17*
%TO.C,S2*%
X267476150Y-15238600D03*
D15*
X267476150Y-30478600D03*
D17*
X291288650Y-15238600D03*
D15*
X291288650Y-30478600D03*
%TD*%
D14*
%TO.C,SW21*%
X93338800Y-22223600D03*
D15*
X98418800Y-22223600D03*
D14*
X103498800Y-22223600D03*
%TD*%
D16*
%TO.C,D5*%
X34129100Y-103816200D03*
D10*
X34129100Y-96196200D03*
%TD*%
D14*
%TO.C,SW55*%
X267159100Y-79370000D03*
D15*
X272239100Y-79370000D03*
D14*
X277319100Y-79370000D03*
%TD*%
%TO.C,SW2*%
X21905800Y-41272400D03*
D15*
X26985800Y-41272400D03*
D14*
X32065800Y-41272400D03*
%TD*%
%TO.C,SW33*%
X145723000Y-60321200D03*
D15*
X150803000Y-60321200D03*
D14*
X155883000Y-60321200D03*
%TD*%
%TO.C,SW58*%
X271921300Y-60321200D03*
D15*
X277001300Y-60321200D03*
D14*
X282081300Y-60321200D03*
%TD*%
%TO.C,SW7*%
X45716800Y-41272400D03*
D15*
X50796800Y-41272400D03*
D14*
X55876800Y-41272400D03*
%TD*%
D16*
%TO.C,D38*%
X179376200Y-66512300D03*
D10*
X179376200Y-58892300D03*
%TD*%
D16*
%TO.C,D30*%
X249221800Y-103816200D03*
D10*
X249221800Y-96196200D03*
%TD*%
D17*
%TO.C,S1*%
X94447150Y-91433800D03*
D15*
X94447150Y-106673800D03*
D17*
X194459650Y-91433800D03*
D15*
X194459650Y-106673800D03*
%TD*%
D16*
%TO.C,D24*%
X131754200Y-86354800D03*
D10*
X131754200Y-78734800D03*
%TD*%
D14*
%TO.C,SW57*%
X255253600Y-41272400D03*
D15*
X260333600Y-41272400D03*
D14*
X265413600Y-41272400D03*
%TD*%
D16*
%TO.C,D14*%
X93656600Y-86354800D03*
D10*
X93656600Y-78734800D03*
%TD*%
D16*
%TO.C,D34*%
X169851800Y-86354800D03*
D10*
X169851800Y-78734800D03*
%TD*%
D16*
%TO.C,D33*%
X160327400Y-66512300D03*
D10*
X160327400Y-58892300D03*
%TD*%
D16*
%TO.C,D48*%
X222236000Y-28414700D03*
D10*
X222236000Y-20794700D03*
%TD*%
D16*
%TO.C,D50*%
X236522600Y-66512300D03*
D10*
X236522600Y-58892300D03*
%TD*%
D16*
%TO.C,D43*%
X207949400Y-86354800D03*
D10*
X207949400Y-78734800D03*
%TD*%
D14*
%TO.C,SW59*%
X274302400Y-22223600D03*
D15*
X279382400Y-22223600D03*
D14*
X284462400Y-22223600D03*
%TD*%
D17*
%TO.C,S3*%
X265095050Y-53336200D03*
D15*
X265095050Y-68576200D03*
D17*
X288907550Y-53336200D03*
D15*
X288907550Y-68576200D03*
%TD*%
D16*
%TO.C,D26*%
X126992000Y-28414700D03*
D10*
X126992000Y-20794700D03*
%TD*%
D16*
%TO.C,D35*%
X273032800Y-103816200D03*
D10*
X273032800Y-96196200D03*
%TD*%
M02*
